# xmcd
#
# Track frame offsets: 
#        150
#        19086
#        34965
#        51480
#        68642
#        83817
#        101651
#        116970
#        133566
#        149321
#        163667
#        180870
#        198789
#        220211
#        235846
#        251947
#        266890
#        281956
#        303311
#        321341
#        337876
#
# Disc length: 4778 seconds
#
# Revision: 0
# Processed by: cddbd v1.5.1PL0 Copyright (c) Steve Scherf et al.
# Submitted via: ExactAudioCopy v0.95a3
#
DISCID=3f12a815
DTITLE=Various Artist - Eurihit Parade 2001. Vol. 3
DYEAR=2001
DGENRE=Pop
TTITLE0=Lionel Richie - Angel
TTITLE1=A1 - Take On Me
TTITLE2=Atc - My Heart Beats Like A Drum (Dam Dam Dam)
TTITLE3=Backstreet Boys - Shape On My Heart
TTITLE4=Britney Spears - Stronger
TTITLE5=Samantha Mumbs - Body Ii Body
TTITLE6=98 Degrees - Give Me Just One Night (Una Noche)
TTITLE7=Uanessa Amorosi - Absolutely Euerybody
TTITLE8=Marc Anthony - When I Dream At Night
TTITLE9=A-Teens - Upside Down
TTITLE10=Westlife - My Love
TTITLE11=Mya - Cuse Of The Ex
TTITLE12=All Saints - Black Coffee
TTITLE13=The Underground Project - Summer Jam
TTITLE14=Jeanette - Go Back
TTITLE15=Mariah Carey Feat. Westlife - Against All Odds (Take A Look A
TTITLE15=t Me Now)
TTITLE16=Anastacia - Not That Kind
TTITLE17=Kylie Minogue and Robbie Williams - Kids
TTITLE18=Eros Ramazzotti - Fuoco Nel Fuoco
TTITLE19=The Offspring - Original Pranhster
TTITLE20=Sade - By Your Side
EXTD=
EXTT0=
EXTT1=
EXTT2=
EXTT3=
EXTT4=
EXTT5=
EXTT6=
EXTT7=
EXTT8=
EXTT9=
EXTT10=
EXTT11=
EXTT12=
EXTT13=
EXTT14=
EXTT15=
EXTT16=
EXTT17=
EXTT18=
EXTT19=
EXTT20=
PLAYORDER=
